<?xml version="1.0" standalone="no"?>
<!DOCTYPE svg PUBLIC "-//W3C//DTD SVG 20010904//EN"
 "http://www.w3.org/TR/2001/REC-SVG-20010904/DTD/svg10.dtd">
<svg version="1.0" xmlns="http://www.w3.org/2000/svg"
 width="450.000000pt" height="450.000000pt" viewBox="0 0 450.000000 450.000000"
 preserveAspectRatio="xMidYMid meet">

<g transform="translate(0.000000,450.000000) scale(0.100000,-0.100000)"
fill="#000000" stroke="none">
<path d="M331 4463 c-1 -48 2 -51 63 -59 42 -6 46 -5 57 19 15 33 -1 57 -40
58 -23 0 -24 1 -6 9 19 8 19 9 -2 9 -14 1 -23 -5 -23 -14 0 -10 10 -15 29 -15
33 0 45 -20 28 -44 -10 -13 -20 -15 -52 -8 -37 7 -40 11 -46 47 l-6 40 -2 -42z"/>
<path d="M819 4454 c-82 -69 -99 -91 -99 -130 0 -72 47 -122 227 -245 l104
-71 47 43 c26 24 131 123 233 221 138 133 185 184 184 200 -1 12 -7 24 -15 26
-7 3 -10 0 -7 -5 8 -13 -344 -353 -367 -353 -4 0 -31 21 -59 46 -28 25 -96 79
-150 120 -73 55 -106 74 -130 75 l-32 0 39 32 c72 58 101 86 90 87 -5 0 -35
-21 -65 -46z m601 -77 c0 -2 -17 -19 -37 -38 l-38 -34 34 38 c33 34 41 42 41
34z m-598 -21 c15 -8 82 -58 149 -112 l122 -97 -26 -14 c-24 -12 -30 -12 -57
8 -16 12 -27 26 -24 31 7 11 -24 48 -39 48 -6 0 0 -12 14 -27 17 -20 18 -23 3
-10 -26 22 -41 22 -23 0 12 -14 10 -14 -13 1 -31 20 -37 32 -12 22 8 -3 12 -2
9 4 -3 6 0 10 7 10 7 1 -3 15 -22 32 -20 18 -27 28 -16 24 16 -6 17 -4 5 10
-8 10 -15 12 -17 5 -2 -7 -13 -6 -33 4 -30 16 -40 32 -13 21 22 -8 7 12 -19
26 -19 10 -20 9 -9 -4 9 -11 9 -17 2 -20 -6 -2 17 -23 50 -47 34 -23 59 -45
56 -48 -2 -3 -11 -1 -18 3 -7 5 -17 9 -23 9 -18 1 -85 47 -80 55 6 9 -23 35
-30 28 -3 -3 4 -17 16 -31 19 -25 18 -32 -4 -28 -5 1 -6 -3 -2 -9 3 -6 11 -7
17 -4 6 4 8 2 5 -3 -10 -15 186 -164 198 -151 3 3 -21 22 -52 43 -58 38 -153
125 -136 125 5 0 36 -23 68 -50 33 -28 65 -48 71 -46 7 3 29 -10 49 -27 31
-27 36 -36 30 -59 l-7 -27 -76 51 c-186 124 -237 193 -182 248 24 24 27 24 62
6z m354 -211 c-66 -63 -123 -115 -128 -115 -21 0 -2 24 60 73 37 30 92 78 122
105 101 94 66 52 -54 -63z m-101 -50 c-33 -27 -42 -26 -25 4 6 12 20 21 33 21
21 -1 20 -2 -8 -25z"/>
<path d="M975 4215 c28 -25 59 -50 70 -56 11 -5 -2 11 -29 36 -27 25 -58 50
-70 56 -12 5 2 -11 29 -36z"/>
<path d="M1911 4473 c-3 -91 78 -130 124 -60 28 43 -10 81 -41 40 -11 -16 -14
-15 -28 17 -9 21 -15 28 -16 17 -1 -47 39 -74 58 -41 5 9 14 14 21 10 8 -5 7
-15 -4 -37 -12 -22 -23 -29 -44 -29 -36 0 -49 16 -60 71 -8 39 -9 41 -10 12z"/>
<path d="M2510 4494 c0 -3 48 -66 106 -140 81 -104 111 -134 129 -134 12 0 54
21 93 46 61 41 69 49 59 65 -8 13 -7 23 7 44 17 26 17 27 -20 76 -21 27 -42
49 -46 49 -5 0 10 -23 33 -52 l41 -52 -24 -17 c-13 -10 -51 -34 -86 -53 l-62
-35 -59 77 c-78 100 -110 139 -111 130 0 -4 36 -53 79 -109 69 -88 89 -129 62
-129 -4 0 -39 39 -76 88 -85 108 -125 155 -125 146z m366 -169 c-6 -24 -26
-36 -26 -15 0 5 -7 7 -15 4 -26 -10 -16 10 13 27 33 19 36 17 28 -16z m-56
-26 c0 -6 6 -7 13 -3 9 5 9 3 -1 -7 -7 -8 -20 -14 -30 -14 -9 0 -16 -5 -15
-12 1 -6 -4 -14 -13 -17 -10 -4 -13 -1 -9 7 4 6 0 4 -8 -5 -17 -21 -37 -24
-37 -5 0 22 17 40 30 32 8 -5 11 -4 6 3 -3 6 0 15 9 19 22 13 55 13 55 2z"/>
<path d="M3403 4437 c6 -75 2 -78 -18 -20 -9 24 -14 31 -15 17 0 -12 10 -36
23 -55 l23 -34 175 2 c110 2 167 -1 154 -7 -16 -7 -13 -8 15 -7 33 2 37 7 77
83 31 58 38 81 28 81 -9 0 -31 -29 -51 -64 -19 -34 -39 -63 -43 -63 -13 0 -31
25 -42 57 -8 26 -9 25 -4 -7 3 -19 10 -36 15 -38 6 -2 10 -8 10 -13 0 -11
-317 -12 -324 -1 -2 4 -7 34 -11 67 -9 83 -18 84 -12 2z m422 -26 c-21 -39
-41 -71 -45 -71 -4 0 11 33 34 74 22 40 43 72 44 71 2 -2 -13 -35 -33 -74z"/>
<path d="M3721 4484 c0 -11 3 -14 6 -6 3 7 2 16 -1 19 -3 4 -6 -2 -5 -13z"/>
<path d="M3764 4453 c0 -29 2 -53 2 -53 5 0 54 89 54 97 0 4 -11 -10 -25 -32
-13 -22 -25 -34 -25 -27 0 7 8 25 17 40 15 24 16 25 1 14 -13 -10 -17 -10 -20
0 -3 7 -4 -11 -4 -39z"/>
<path d="M4170 4496 c0 -11 53 -117 61 -122 5 -3 16 0 24 6 17 14 20 76 4 85
-6 4 -8 13 -5 21 3 8 0 14 -5 14 -7 0 -9 -9 -4 -22 31 -97 2 -122 -39 -33 -21
46 -36 68 -36 51z"/>
<path d="M4291 4492 c-1 -7 6 -29 14 -48 19 -46 49 -44 53 5 2 18 -1 38 -7 44
-7 7 -8 -1 -5 -25 9 -54 -13 -57 -35 -6 -11 24 -20 37 -20 30z"/>
<path d="M3498 4483 c39 -2 105 -2 145 0 39 1 7 3 -73 3 -80 0 -112 -2 -72 -3z"/>
<path d="M3663 4463 c9 -2 25 -2 35 0 9 3 1 5 -18 5 -19 0 -27 -2 -17 -5z"/>
<path d="M3527 4453 c18 -2 50 -2 70 0 21 2 7 4 -32 4 -38 0 -55 -2 -38 -4z"/>
<path d="M3458 4423 c6 -2 18 -2 25 0 6 3 1 5 -13 5 -14 0 -19 -2 -12 -5z"/>
<path d="M3598 4423 c17 -2 47 -2 65 0 17 2 3 4 -33 4 -36 0 -50 -2 -32 -4z"/>
<path d="M3540 4399 l-85 -6 98 0 c53 0 97 1 97 2 0 8 -34 9 -110 4z"/>
<path d="M3538 4373 c12 -2 32 -2 45 0 12 2 2 4 -23 4 -25 0 -35 -2 -22 -4z"/>
<path d="M5 4220 c-4 -6 -2 -9 4 -8 6 2 47 -44 91 -101 l79 -104 -29 -22 c-16
-12 -49 -32 -75 -45 -44 -23 -46 -23 -60 -4 -8 10 -15 14 -15 9 0 -6 5 -16 11
-22 8 -8 8 -17 -1 -33 -15 -28 0 -45 32 -37 14 4 50 23 81 44 43 28 54 40 45
50 -7 9 -6 20 6 38 16 25 16 26 -57 123 -83 110 -102 128 -112 112z m142 -275
c-4 -8 -14 -15 -23 -15 -9 0 -30 -13 -45 -30 -16 -16 -29 -26 -29 -22 0 4 -4
1 -9 -7 -5 -7 -14 -10 -20 -7 -18 12 5 43 41 55 18 6 44 20 58 31 27 20 36 19
27 -5z"/>
<path d="M4028 4219 c-10 -5 -18 -15 -18 -20 0 -6 7 -3 16 5 8 9 19 16 24 16
18 0 32 -44 27 -83 -4 -27 -2 -36 4 -26 14 22 11 72 -7 97 -17 25 -22 26 -46
11z"/>
<path d="M4430 4183 c-79 -44 -100 -61 -100 -83 0 -9 32 -57 71 -106 78 -98
99 -121 99 -112 0 3 -36 51 -80 105 -72 88 -96 133 -71 133 4 0 40 -41 80 -91
39 -50 71 -86 71 -81 0 6 -32 50 -71 97 -39 48 -69 88 -67 89 2 2 33 19 71 40
37 20 67 39 67 41 0 7 -1 7 -70 -32z"/>
<path d="M2267 4193 c-11 -10 -8 -33 4 -33 5 0 7 5 3 11 -3 6 0 15 7 20 8 5 9
9 3 9 -6 0 -14 -3 -17 -7z"/>
<path d="M2323 4177 l29 -12 -36 -33 c-38 -35 -45 -52 -21 -52 18 0 20 -16 3
-23 -10 -4 -10 -6 -1 -6 20 -2 27 21 10 34 -15 10 -12 16 19 46 32 31 33 35
17 46 -9 7 -24 13 -32 13 -9 -1 -3 -6 12 -13z"/>
<path d="M4002 4150 c0 -19 2 -27 5 -17 2 9 2 25 0 35 -3 9 -5 1 -5 -18z"/>
<path d="M2263 4123 c-34 -36 -41 -53 -21 -53 6 0 8 3 4 7 -3 4 8 22 26 40 17
18 30 34 27 36 -2 2 -19 -12 -36 -30z"/>
<path d="M4035 4150 c-8 -13 3 -30 18 -30 7 0 6 4 -3 10 -13 9 -13 11 0 20 9
6 10 10 3 10 -6 0 -15 -4 -18 -10z"/>
<path d="M3290 4053 c-46 -38 -92 -80 -103 -94 -18 -25 -18 -29 -3 -55 8 -16
15 -25 16 -21 0 5 -5 17 -10 28 -15 27 14 63 111 139 71 56 86 70 76 70 -2 0
-41 -30 -87 -67z"/>
<path d="M3410 4095 c14 -8 30 -14 35 -14 6 0 -1 6 -15 14 -14 8 -29 14 -35
14 -5 0 1 -6 15 -14z"/>
<path d="M4018 4098 c6 -6 18 -8 28 -6 14 3 12 5 -9 10 -19 3 -25 2 -19 -4z"/>
<path d="M2913 4083 c-7 -2 -13 -11 -13 -19 0 -8 -10 -14 -23 -14 -27 0 -137
-67 -137 -83 0 -7 4 -18 9 -26 8 -12 19 -8 66 20 31 19 65 42 75 52 11 9 23
17 28 17 4 0 17 6 27 14 16 12 17 16 6 30 -14 17 -18 18 -38 9z m27 -24 c0 -5
-7 -9 -15 -9 -15 0 -20 12 -9 23 8 8 24 -1 24 -14z m-50 -28 c0 -12 -110 -81
-128 -81 -26 0 -5 25 48 58 55 32 80 40 80 23z"/>
<path d="M4070 4080 c-9 -6 -10 -10 -3 -10 6 0 15 5 18 10 8 12 4 12 -15 0z"/>
<path d="M3460 4077 c0 -7 212 -89 217 -84 2 2 -38 20 -89 40 -51 19 -101 38
-110 42 -10 4 -18 5 -18 2z"/>
<path d="M1580 4023 c-21 -27 -22 -34 -15 -158 8 -147 16 -167 61 -146 24 10
26 16 21 49 -3 20 -8 45 -12 55 -10 25 31 23 45 -3 6 -11 20 -25 32 -31 18
-10 24 -8 39 10 20 24 20 26 -28 129 -35 77 -74 122 -104 122 -10 0 -27 -12
-39 -27z m68 1 c28 -19 102 -164 102 -199 0 -35 -33 -33 -60 5 -24 34 -29 35
-54 17 -16 -12 -17 -18 -5 -55 13 -44 3 -72 -26 -72 -16 0 -22 35 -31 171 -6
100 -5 108 15 128 25 25 30 26 59 5z"/>
<path d="M1603 3964 c-3 -8 1 -22 9 -30 19 -19 52 3 42 29 -8 21 -43 22 -51 1z
m37 -9 c0 -8 -7 -15 -15 -15 -16 0 -20 12 -8 23 11 12 23 8 23 -8z"/>
<path d="M467 4014 c-4 -4 -7 -21 -7 -37 0 -30 0 -30 -20 -12 -15 14 -23 16
-32 7 -8 -8 -1 -25 27 -67 47 -67 60 -79 81 -71 10 4 13 13 9 26 -5 17 -2 20
20 20 22 0 26 4 23 23 -2 17 -11 23 -38 27 -28 4 -34 9 -31 25 8 41 6 59 -9
63 -9 1 -19 0 -23 -4z m28 -31 c-14 -53 -12 -58 28 -61 42 -4 51 -27 12 -34
-13 -3 -22 -1 -19 3 3 5 -2 9 -12 9 -15 0 -15 -2 0 -24 11 -17 12 -27 5 -32
-12 -7 -13 -7 -63 64 -38 52 -43 91 -6 42 l18 -25 7 30 c11 49 14 55 26 55 7
0 9 -9 4 -27z"/>
<path d="M3698 3981 c10 -6 -8 -28 -63 -82 -42 -41 -82 -75 -89 -77 -8 -2 -53
15 -101 38 -49 22 -90 39 -92 37 -2 -2 37 -23 87 -45 54 -25 88 -47 86 -54 -1
-7 -1 -10 1 -5 3 4 11 7 19 7 7 0 21 11 30 25 13 20 19 23 31 14 12 -10 8 -18
-22 -49 -19 -20 -32 -39 -29 -43 4 -4 0 -7 -9 -7 -10 0 -17 6 -17 13 0 9 -2 9
-9 -1 -6 -11 -21 -7 -71 18 -34 17 -64 29 -66 27 -2 -2 32 -21 75 -41 66 -31
83 -35 100 -26 12 6 21 15 21 20 0 5 8 11 18 14 24 8 65 64 66 90 1 12 6 28
11 36 5 8 8 22 7 32 -2 9 2 19 8 23 6 4 10 -4 10 -19 0 -14 5 -26 12 -26 6 0
1 -11 -12 -25 -30 -31 -23 -32 18 -1 30 21 31 24 12 29 -22 6 -29 51 -9 63 12
7 -6 24 -26 24 -5 0 -4 -4 3 -9z m-49 -107 c-18 -18 -36 -31 -41 -27 -6 3 5
20 23 39 18 18 36 31 41 27 6 -3 -5 -20 -23 -39z m-10 -53 c-12 -16 -35 -39
-53 -51 -22 -16 -16 -8 19 29 56 58 65 64 34 22z"/>
<path d="M3619 3863 c-13 -16 -12 -17 4 -4 16 13 21 21 13 21 -2 0 -10 -8 -17
-17z"/>
<path d="M3317 3909 c7 -7 15 -10 18 -7 3 3 -2 9 -12 12 -14 6 -15 5 -6 -5z"/>
<path d="M3240 3860 c8 -5 20 -10 25 -10 6 0 3 5 -5 10 -8 5 -19 10 -25 10 -5
0 -3 -5 5 -10z"/>
<path d="M3280 3845 c0 -7 81 -47 86 -43 2 3 -17 14 -41 26 -25 12 -45 20 -45
17z"/>
<path d="M3935 3709 c-51 -102 -51 -121 0 -146 59 -28 101 13 51 49 l-27 20
36 63 c39 70 43 90 19 99 -29 11 -34 6 -79 -85z m80 71 c3 -5 -11 -42 -32 -81
l-38 -70 28 -22 c15 -13 27 -26 27 -30 0 -16 -68 -6 -84 12 -16 17 -15 23 19
96 46 102 63 122 80 95z"/>
<path d="M2136 3624 c-127 -57 -131 -60 -111 -90 19 -30 19 -48 0 -64 -14 -12
-14 -15 2 -32 9 -10 22 -17 29 -14 6 2 22 -7 35 -22 l24 -27 -27 24 c-56 49
-26 7 69 -97 54 -59 102 -108 108 -109 21 -5 230 113 242 137 17 34 -2 65
-101 169 -44 47 -97 105 -115 129 -19 23 -39 42 -45 41 -6 0 -56 -20 -110 -45z
m261 -132 l94 -103 -107 -55 c-103 -52 -108 -54 -124 -37 -9 10 -68 71 -130
136 -62 65 -110 121 -106 124 4 4 55 29 114 55 l107 48 29 -32 c16 -18 71 -79
123 -136z m-223 -117 c93 -99 116 -129 111 -145 -3 -11 -12 -20 -18 -20 -19 0
-158 157 -152 172 3 8 -6 25 -19 37 -14 13 -23 27 -21 32 3 4 1 11 -5 14 -6 4
-10 3 -9 -2 5 -26 -1 -35 -15 -23 -12 9 -13 17 -4 36 6 13 12 24 12 24 1 0 55
-56 120 -125z m326 -25 c0 -21 -59 -64 -155 -113 l-50 -25 1 32 c1 23 6 31 18
30 10 -1 15 1 11 4 -8 9 85 64 112 66 13 0 23 4 23 8 0 4 7 4 17 1 11 -4 14
-3 9 5 -4 7 -2 12 3 12 6 0 11 -9 11 -20z"/>
<path d="M2113 3414 c38 -41 50 -67 20 -43 -10 8 15 -23 56 -68 41 -46 75 -83
77 -83 12 0 -6 45 -29 72 -29 33 -29 33 -12 3 l18 -30 -37 35 c-20 19 -32 36
-26 38 11 4 -50 78 -84 101 -12 8 -4 -4 17 -25z"/>
<path d="M2378 3309 c-21 -11 -38 -22 -38 -24 0 -3 18 4 40 15 22 11 40 23 40
25 0 7 0 7 -42 -16z"/>
<path d="M2420 3305 c-25 -13 -40 -24 -35 -24 6 0 30 11 55 24 25 13 41 24 35
24 -5 0 -30 -11 -55 -24z"/>
<path d="M2324 3254 c-18 -14 -18 -14 6 -3 31 14 36 19 24 19 -6 0 -19 -7 -30
-16z"/>
<path d="M104 3563 c-26 -49 -60 -112 -77 -141 -16 -29 -27 -55 -25 -57 2 -2
37 59 78 135 l75 139 240 3 240 3 -242 3 -242 2 -47 -87z"/>
<path d="M2837 3552 c-20 -54 -37 -101 -37 -105 0 -11 57 -37 83 -37 47 0 109
91 111 163 1 49 -29 77 -83 77 l-36 0 -38 -98z m122 72 c20 -15 23 -23 19 -65
-6 -58 -47 -126 -82 -135 -14 -3 -37 1 -54 10 l-30 16 36 95 c33 85 39 95 62
95 14 0 36 -7 49 -16z"/>
<path d="M2871 3554 c-27 -70 -26 -74 4 -74 58 0 102 95 56 120 -32 17 -37 13
-60 -46z m59 31 c17 -21 5 -62 -25 -81 -38 -25 -44 -13 -22 44 21 55 27 61 47
37z"/>
<path d="M506 3417 c-60 -116 -115 -221 -123 -232 -13 -19 -24 -20 -201 -19
l-187 1 167 -6 c91 -3 170 -9 174 -13 4 -5 -71 -9 -167 -9 -116 -1 -157 -4
-124 -9 28 -4 103 -5 167 -2 l117 4 -9 -33 c-9 -29 -6 -51 14 -119 0 -3 -24
-8 -54 -11 l-55 -7 62 2 c34 0 65 -2 69 -7 4 -4 -74 -7 -174 -7 -155 0 -182
-2 -182 -15 0 -13 24 -15 153 -15 83 0 175 -3 203 -6 l51 -6 40 73 c40 75 205
419 216 452 4 11 3 16 -3 12 -6 -3 -10 1 -10 10 0 11 5 15 16 11 8 -3 12 -2 9
4 -3 6 -15 10 -25 10 -23 0 -34 33 -35 103 0 26 0 47 0 47 0 0 -49 -96 -109
-213z m125 57 c11 -14 10 -29 -7 -68 -5 -14 -4 -17 4 -12 8 5 10 1 5 -10 -5
-13 -8 -14 -11 -5 -3 8 -53 -82 -113 -199 -59 -117 -113 -218 -119 -224 -15
-15 -46 23 -60 72 -12 47 4 112 30 119 12 3 52 68 111 181 51 98 97 180 103
184 6 4 12 13 12 20 4 39 7 39 20 -1 7 -24 19 -49 25 -57z m-115 -332 c-58
-116 -111 -214 -117 -218 -15 -9 -21 -21 104 225 60 117 111 211 113 208 3 -3
-42 -99 -100 -215z m-214 -209 c-40 -2 -103 -2 -140 0 -37 2 -4 3 73 3 77 0
107 -2 67 -3z"/>
<path d="M568 3467 c-22 -32 -82 -154 -71 -142 13 13 95 165 89 165 -2 0 -10
-10 -18 -23z"/>
<path d="M556 3381 c-20 -39 -69 -126 -109 -193 -41 -68 -77 -134 -81 -148 -6
-23 -6 -23 5 -5 6 11 35 61 64 110 77 130 166 298 161 303 -3 2 -21 -28 -40
-67z"/>
<path d="M584 3378 c-20 -40 -51 -98 -70 -129 -39 -65 -46 -94 -8 -34 33 52
126 235 119 235 -3 0 -21 -33 -41 -72z"/>
<path d="M412 3190 c-30 -55 -51 -100 -48 -100 3 0 18 23 32 52 15 29 38 69
51 90 14 20 23 42 21 48 -2 6 -27 -34 -56 -90z"/>
<path d="M402 3057 c-18 -29 -32 -57 -32 -62 0 -6 16 16 35 49 20 32 34 60 32
62 -2 2 -17 -20 -35 -49z"/>
<path d="M1020 3570 c-9 -17 -8 -25 5 -40 16 -18 16 -22 -5 -74 -24 -56 -22
-86 5 -86 15 0 65 90 65 118 0 15 6 15 30 2 15 -8 21 -6 30 11 14 25 -1 46
-45 64 -64 27 -73 27 -85 5z m100 -25 c35 -18 31 -44 -7 -42 -21 2 -28 -6 -50
-60 -14 -35 -31 -63 -39 -63 -20 0 -17 24 6 70 24 47 26 76 5 84 -12 4 -14 10
-5 26 11 21 25 19 90 -15z"/>
<path d="M4210 3462 c0 -4 18 -6 40 -4 22 2 40 1 40 -2 0 -4 -9 -24 -20 -46
-11 -22 -20 -42 -20 -45 0 -3 9 -5 20 -5 41 0 18 -19 -27 -23 l-48 -3 53 -2
c42 -2 52 1 52 14 0 9 -9 18 -20 21 -19 5 -19 5 0 44 11 21 20 43 20 49 0 5
-20 10 -45 10 -25 0 -45 -3 -45 -8z"/>
<path d="M1553 3453 c-7 -2 -13 -16 -13 -29 0 -17 6 -24 20 -24 10 0 24 -8 30
-17 8 -12 10 -13 7 -3 -2 8 -13 19 -25 25 -32 14 -23 40 13 40 l30 0 -3 -65
c-4 -70 -22 -110 -50 -110 -23 0 -42 19 -42 42 0 23 9 23 25 1 11 -15 15 -15
29 -4 9 7 16 23 15 35 -1 19 -2 19 -8 -3 -8 -28 -31 -41 -31 -17 0 9 -8 16
-20 16 -22 0 -27 -28 -10 -61 24 -43 99 -7 101 49 0 15 3 47 5 71 3 29 0 47
-8 53 -14 8 -46 9 -65 1z"/>
<path d="M4230 3403 c-23 -58 -23 -61 0 -20 12 21 20 43 18 48 -2 6 -10 -7
-18 -28z"/>
<path d="M3320 3288 c-58 -55 -140 -130 -183 -166 -43 -36 -80 -76 -83 -89
-16 -60 29 -116 171 -213 l106 -71 37 32 c20 18 108 100 195 182 107 103 157
157 157 172 0 14 -36 56 -102 122 -97 94 -150 134 -180 133 -7 -1 -60 -46
-118 -102z m293 -45 l97 -98 -62 -61 c-104 -100 -245 -224 -255 -224 -5 0 -20
11 -33 25 -27 28 -50 34 -29 8 13 -16 12 -17 -3 -5 -10 8 -16 19 -15 25 3 16
-170 145 -200 149 -24 3 -23 5 30 48 31 25 110 96 176 158 l121 113 37 -20
c21 -11 82 -64 136 -118z m-452 -217 c20 -14 36 -32 36 -40 0 -9 -3 -16 -6
-16 -13 1 -38 26 -34 35 2 6 -6 16 -17 23 -25 15 -26 5 -2 -15 16 -14 16 -14
0 -9 -28 8 -22 1 22 -28 23 -15 38 -31 35 -36 -9 -15 -73 32 -90 65 -8 17 -15
23 -15 14 0 -21 21 -45 85 -96 63 -50 86 -64 62 -36 -9 11 -14 23 -10 27 4 4
0 4 -8 1 -10 -4 -16 0 -16 10 0 8 3 15 7 15 11 0 41 -36 35 -42 -3 -3 12 -20
33 -37 31 -24 38 -36 35 -55 -5 -25 -5 -25 -80 26 -145 97 -181 144 -148 194
19 30 31 30 76 0z m95 -72 c24 -20 42 -40 39 -44 -7 -11 32 -43 44 -36 5 4 12
2 16 -3 3 -6 -4 -15 -16 -21 -17 -9 -24 -8 -40 6 -10 9 -19 23 -19 30 0 7 -17
26 -37 43 -20 17 -38 37 -39 46 -3 22 2 19 52 -21z m162 -109 c-70 -67 -112
-97 -91 -63 4 7 7 22 8 33 0 12 8 21 20 23 l20 4 -20 -22 -20 -23 22 11 c12 7
45 34 75 62 83 77 72 58 -14 -25z"/>
<path d="M3106 2942 c74 -63 164 -125 170 -119 3 3 -18 21 -48 40 -29 19 -64
46 -77 61 -14 14 -31 26 -40 26 -9 0 -11 -3 -5 -8z"/>
<path d="M3252 2935 c15 -16 30 -26 33 -23 4 3 -9 16 -27 28 l-33 23 27 -28z"/>
<path d="M4436 3245 c-58 -112 -59 -116 -54 -180 8 -88 43 -145 91 -144 30 1
30 1 7 8 l-25 8 25 5 c25 5 25 5 -2 7 -16 0 -28 4 -28 9 0 4 -7 48 -15 97 -8
50 -15 93 -15 97 0 4 19 9 43 11 l42 4 -48 1 -47 2 46 91 c25 50 44 93 42 95
-2 2 -30 -48 -62 -111z m-11 -203 c2 -30 7 -63 10 -75 6 -22 6 -22 -10 -2 -30
37 -43 120 -28 175 7 24 7 23 15 -10 4 -19 10 -59 13 -88z"/>
<path d="M740 3151 c-31 -60 10 -151 63 -137 17 4 29 15 33 31 8 34 -3 91 -22
110 -21 21 -61 19 -74 -4z m70 -6 c18 -22 25 -92 10 -110 -32 -38 -80 1 -80
65 0 54 40 81 70 45z"/>
<path d="M767 3133 c-4 -3 -7 -12 -7 -20 0 -15 26 -18 34 -4 7 11 -18 33 -27
24z"/>
<path d="M4468 3133 c6 -2 18 -2 25 0 6 3 1 5 -13 5 -14 0 -19 -2 -12 -5z"/>
<path d="M105 3100 c-90 -6 -86 -7 47 -5 81 0 151 4 154 8 8 8 -45 7 -201 -3z"/>
<path d="M2577 3092 c-25 -27 -25 -220 -1 -229 21 -8 44 21 37 47 -8 30 4 24
22 -10 16 -30 38 -39 51 -19 3 6 -2 28 -11 49 -14 31 -15 45 -7 70 13 37 3 71
-30 94 -29 21 -41 20 -61 -2z m77 -34 c7 -18 6 -38 0 -55 -8 -22 -7 -36 9 -67
27 -56 6 -71 -25 -17 -12 22 -26 41 -30 41 -4 0 -8 -19 -10 -42 -5 -73 -23
-42 -26 44 -4 115 1 130 41 126 24 -2 34 -9 41 -30z"/>
<path d="M2594 3055 c-4 -9 -2 -21 4 -27 15 -15 44 -1 40 19 -4 23 -36 29 -44
8z m30 -16 c-3 -5 -10 -7 -15 -3 -5 3 -7 10 -3 15 3 5 10 7 15 3 5 -3 7 -10 3
-15z"/>
<path d="M4468 3093 c6 -2 18 -2 25 0 6 3 1 5 -13 5 -14 0 -19 -2 -12 -5z"/>
<path d="M130 3069 c-153 -13 -155 -19 -5 -12 72 4 140 6 153 7 12 0 22 4 22
8 0 9 -22 9 -170 -3z"/>
<path d="M1874 3065 c-3 -8 13 -38 40 -70 52 -64 57 -85 22 -85 -17 0 -36 14
-62 48 -21 26 -39 49 -40 50 -5 8 -43 -10 -48 -23 -7 -20 90 -124 132 -142 30
-12 38 -12 70 4 46 22 52 54 22 113 -45 88 -120 146 -136 105z m80 -46 c25
-28 51 -69 58 -91 11 -38 10 -42 -11 -59 -42 -34 -76 -25 -142 38 -56 53 -69
81 -43 90 6 2 23 -13 37 -34 47 -68 117 -91 117 -39 0 12 -20 46 -45 75 -41
48 -49 71 -25 71 4 0 29 -23 54 -51z"/>
<path d="M1167 3003 c-113 -64 -136 -89 -115 -126 13 -24 166 -221 219 -281
24 -27 28 -28 58 -18 55 19 173 104 161 116 -16 16 -12 38 11 62 l20 22 -76
98 c-124 160 -145 184 -163 183 -9 0 -61 -25 -115 -56z m233 -90 l102 -137
-24 -17 c-12 -10 -57 -37 -98 -59 l-75 -41 -20 28 c-11 15 -59 77 -107 137
-49 60 -88 112 -88 115 0 8 182 111 196 111 6 0 57 -62 114 -137z m-268 -53
c66 -79 158 -201 158 -209 0 -11 -19 -35 -23 -31 -3 3 -52 65 -110 138 -77 97
-104 138 -100 153 3 11 9 19 13 17 4 -2 32 -32 62 -68z m328 -176 c-14 -16
-45 -19 -34 -3 4 8 0 8 -15 0 -24 -13 -25 -17 -9 -27 7 -4 8 -3 4 4 -4 7 -5
12 -2 12 16 0 13 -21 -5 -30 -17 -10 -20 -9 -13 2 4 7 -6 -2 -23 -19 -20 -21
-41 -33 -57 -33 -30 0 -32 7 -10 38 17 25 82 63 68 40 -5 -9 -2 -9 12 2 10 8
21 17 24 20 3 3 19 15 35 27 30 21 30 21 33 2 2 -11 -2 -27 -8 -35z"/>
<path d="M4468 3053 c6 -2 18 -2 25 0 6 3 1 5 -13 5 -14 0 -19 -2 -12 -5z"/>
<path d="M7 3023 c7 -2 19 -2 26 0 6 3 1 5 -13 5 -14 0 -19 -2 -13 -5z"/>
<path d="M118 3023 c34 -2 88 -2 120 0 31 2 3 3 -63 3 -66 0 -92 -1 -57 -3z"/>
<path d="M3966 3007 c-30 -31 -92 -215 -77 -230 17 -17 61 8 61 35 0 51 33 62
42 14 1 -10 11 -24 21 -30 15 -9 21 -7 33 8 15 21 20 96 5 96 -4 0 -6 -11 -3
-25 2 -13 1 -36 -2 -50 -9 -36 -39 -29 -46 10 -9 52 -59 43 -60 -11 0 -27 -27
-51 -40 -38 -13 13 53 202 77 220 10 7 21 14 25 14 15 0 38 -46 38 -77 0 -18
4 -33 9 -33 5 0 8 8 6 18 -2 9 -4 27 -4 40 -1 23 -33 62 -51 62 -6 0 -21 -10
-34 -23z"/>
<path d="M6 2989 c5 -9 133 -9 184 0 33 6 15 8 -71 7 -65 -1 -115 -4 -113 -7z"/>
<path d="M288 2993 c6 -2 18 -2 25 0 6 3 1 5 -13 5 -14 0 -19 -2 -12 -5z"/>
<path d="M103 2963 c15 -2 37 -2 50 0 12 2 0 4 -28 4 -27 0 -38 -2 -22 -4z"/>
<path d="M3977 2964 c-16 -16 -6 -35 16 -32 12 2 22 10 22 18 0 16 -26 25 -38
14z m23 -14 c0 -5 -4 -10 -10 -10 -5 0 -10 5 -10 10 0 6 5 10 10 10 6 0 10 -4
10 -10z"/>
<path d="M438 2743 c-23 -26 -78 -140 -78 -160 0 -19 57 -63 81 -63 41 0 53
60 17 78 -23 11 -23 11 -2 11 12 1 27 8 34 16 10 13 9 19 -6 36 -19 21 -19 21
17 14 26 -5 39 -2 48 9 19 23 7 43 -35 61 -47 19 -57 19 -76 -2z m89 -19 c34
-21 19 -46 -22 -38 -22 4 -35 1 -41 -7 -4 -7 -3 -14 4 -17 7 -2 12 -13 12 -24
0 -15 -5 -19 -20 -15 -10 3 -24 -1 -31 -9 -9 -11 -6 -16 15 -25 28 -13 35 -46
11 -55 -18 -7 -85 33 -85 51 0 17 56 124 77 148 17 18 41 16 80 -9z"/>
<path d="M4468 2739 c-10 -5 -18 -15 -18 -22 0 -8 3 -9 8 -1 4 6 16 16 27 22
11 6 16 11 10 11 -5 0 -18 -4 -27 -10z"/>
<path d="M10 2733 c8 -3 7 -9 -1 -19 -9 -11 -8 -14 2 -14 11 0 11 -3 -1 -11
-12 -9 -11 -9 5 -4 49 18 63 17 75 -6 11 -20 10 -25 -10 -41 -12 -10 -27 -15
-32 -12 -6 4 -1 14 13 25 21 16 22 19 7 24 -10 4 -30 2 -45 -4 -27 -10 -27
-11 7 -5 31 4 33 3 18 -9 -35 -28 -13 -53 29 -34 30 14 36 35 17 64 -13 20
-21 24 -45 19 -24 -4 -29 -2 -27 11 2 9 -3 17 -10 19 -7 1 -8 0 -2 -3z"/>
<path d="M4480 2701 c0 -6 4 -12 8 -15 5 -3 9 1 9 9 0 8 -4 15 -9 15 -4 0 -8
-4 -8 -9z"/>
<path d="M4450 2694 c0 -17 27 -37 42 -31 8 4 7 6 -4 6 -9 1 -22 9 -27 19 -6
9 -11 12 -11 6z"/>
<path d="M2465 2630 c-265 -73 -285 -82 -285 -132 0 -39 124 -288 137 -275 2
3 -10 30 -27 61 -17 30 -28 61 -24 67 4 8 12 3 21 -15 12 -24 17 -26 31 -14
14 11 15 10 8 -7 -4 -11 -4 -16 0 -12 4 4 13 -1 20 -11 10 -14 10 -20 -2 -33
-21 -23 -22 -63 -2 -67 10 -2 55 10 100 26 46 17 143 49 215 73 100 32 130 45
123 54 -11 14 -3 45 11 45 17 0 9 19 -35 82 -24 35 -54 83 -66 108 -25 51 -58
90 -74 89 -6 0 -74 -18 -151 -39z m207 -45 c11 -22 41 -71 65 -108 25 -37 43
-70 41 -72 -2 -3 -92 -34 -199 -69 -182 -61 -195 -64 -211 -48 -16 17 -138
239 -138 253 0 8 -13 4 205 64 93 25 171 48 174 51 8 8 43 -31 63 -71z m-402
-155 c27 -55 46 -101 41 -104 -4 -3 -16 13 -26 35 -25 55 -65 108 -65 86 0 -9
5 -17 11 -17 5 0 7 -5 3 -12 -5 -7 -3 -8 6 -3 10 6 12 4 7 -9 -4 -9 -3 -15 2
-12 14 9 23 -26 11 -38 -8 -8 -9 -6 -4 8 5 12 4 17 -3 13 -10 -6 -51 70 -45
85 1 5 -2 8 -8 8 -11 0 -13 30 -4 54 10 25 22 10 74 -94z m490 -69 c0 -24 -18
-37 -32 -23 -7 7 -6 15 3 26 19 21 29 20 29 -3z m-50 -10 c0 -5 -6 -12 -12
-14 -7 -3 -4 -6 7 -7 22 -1 -117 -50 -150 -52 -11 -1 -24 -5 -30 -9 -9 -6
-114 -48 -157 -62 -22 -8 -32 8 -20 29 8 15 145 63 192 68 9 1 22 6 29 11 14
8 119 43 134 44 4 1 7 -3 7 -8z"/>
<path d="M2220 2490 c6 -11 13 -20 16 -20 2 0 0 9 -6 20 -6 11 -13 20 -16 20
-2 0 0 -9 6 -20z"/>
<path d="M2604 2315 c-10 -8 -14 -14 -9 -14 6 0 19 6 29 14 11 8 15 15 10 15
-6 0 -19 -7 -30 -15z"/>
<path d="M2465 2270 c-19 -8 -19 -9 2 -9 12 -1 25 4 28 9 7 12 -2 12 -30 0z"/>
<path d="M2418 2253 c7 -3 16 -2 19 1 4 3 -2 6 -13 5 -11 0 -14 -3 -6 -6z"/>
<path d="M1704 2548 c-17 -28 8 -191 34 -220 18 -22 37 -10 56 36 l13 31 7
-32 c15 -64 57 -66 77 -5 7 21 13 71 13 112 1 73 0 75 -24 75 -22 0 -26 -6
-35 -48 -9 -42 -11 -45 -20 -25 -15 32 -32 33 -49 1 l-15 -28 -1 42 c0 23 -3
48 -6 57 -7 19 -40 21 -50 4z m40 -14 c3 -9 6 -33 6 -54 0 -51 15 -58 36 -18
l17 33 15 -35 c13 -33 15 -34 28 -15 8 10 14 36 14 58 0 31 3 38 18 35 14 -3
17 -14 16 -70 -2 -86 -19 -138 -45 -138 -12 0 -19 7 -19 19 0 58 -33 68 -50
16 -25 -75 -55 -25 -67 113 -5 61 -4 72 9 72 9 0 19 -7 22 -16z"/>
<path d="M882 2540 c-21 -9 -23 -14 -20 -87 l3 -78 31 -3 c40 -4 65 25 71 82
5 38 2 48 -20 70 -28 28 -31 29 -65 16z m59 -21 c17 -17 20 -30 16 -65 -6 -55
-21 -74 -58 -74 l-29 0 0 74 c0 76 1 78 43 85 4 0 17 -9 28 -20z"/>
<path d="M880 2466 c0 -53 12 -64 40 -36 33 33 21 80 -22 80 -15 0 -18 -8 -18
-44z m47 18 c7 -18 -7 -46 -25 -52 -8 -2 -12 9 -12 32 0 38 25 51 37 20z"/>
<path d="M3078 2523 c-38 -6 -40 -48 -2 -57 23 -6 25 -10 19 -39 -4 -18 -9
-35 -12 -39 -7 -14 -23 -9 -23 7 0 8 -9 15 -20 15 -22 0 -27 -28 -10 -61 15
-28 65 -25 85 5 22 34 32 155 14 167 -8 5 -16 8 -19 7 -3 0 -17 -3 -32 -5z
m48 -79 c-8 -82 -13 -93 -42 -100 -28 -7 -54 11 -54 37 0 23 9 24 25 2 18 -24
42 -9 49 32 8 38 -5 65 -30 65 -23 0 -16 28 9 32 45 8 50 0 43 -68z"/>
<path d="M3836 2492 c-3 -5 1 -9 9 -9 8 0 12 4 9 9 -3 4 -7 8 -9 8 -2 0 -6 -4
-9 -8z"/>
<path d="M3887 2470 c-18 -15 -27 -17 -30 -8 -3 7 -6 3 -6 -9 -1 -30 10 -29
39 2 26 28 40 32 40 12 0 -7 -14 -21 -31 -31 l-31 -18 32 -33 c23 -24 28 -35
19 -40 -7 -5 -20 3 -33 21 l-21 28 -5 -29 c-9 -53 -25 -27 -25 40 0 36 -4 65
-8 65 -4 0 -7 -33 -5 -72 3 -61 6 -73 21 -76 12 -3 20 4 24 18 5 20 6 20 25 4
17 -16 20 -16 34 -2 14 14 13 18 -13 42 l-28 27 29 24 c19 15 27 29 23 39 -8
21 -19 20 -50 -4z"/>
<path d="M3 2414 c-3 -7 -3 -19 0 -26 4 -8 6 -6 6 5 1 9 7 17 14 17 11 0 74
-15 104 -25 8 -3 9 -15 3 -42 -5 -21 -13 -63 -20 -94 l-11 -57 -49 19 c-28 10
-50 15 -50 11 0 -5 18 -14 40 -21 22 -6 40 -17 40 -23 0 -7 -4 -7 -12 -1 -19
15 -57 22 -63 13 -3 -5 13 -15 35 -21 35 -11 43 -10 56 3 17 17 58 209 46 219
-4 3 -35 13 -70 22 -53 13 -64 13 -69 1z"/>
<path d="M3438 2395 c-22 -29 -24 -46 -3 -19 15 18 15 18 10 -6 -16 -81 -26
-127 -31 -144 -4 -11 -2 -16 4 -12 5 3 15 -1 22 -9 16 -19 0 -20 -25 -1 -17
12 -18 18 -7 66 19 83 12 92 -8 10 -23 -91 -23 -91 -7 -89 6 1 19 -1 27 -4 8
-4 37 -13 64 -21 43 -13 50 -13 63 0 12 11 53 179 53 215 0 6 -119 39 -137 39
-4 0 -16 -11 -25 -25z m100 -4 c24 -5 45 -11 47 -13 4 -4 -31 -177 -36 -183
-5 -4 -106 29 -115 38 -3 3 2 44 12 91 14 68 21 85 34 81 8 -2 34 -9 58 -14z
m-12 -212 c3 -5 -7 -4 -21 1 -15 6 -31 8 -36 4 -5 -3 -9 2 -9 10 0 12 5 13 30
4 17 -5 33 -14 36 -19z"/>
<path d="M4481 2392 c-17 -31 -13 -40 5 -14 9 13 14 26 11 29 -3 2 -10 -4 -16
-15z"/>
<path d="M4479 2295 c-14 -65 -14 -75 -1 -80 20 -7 30 4 13 15 -12 7 -12 18
-1 69 7 34 11 63 8 66 -2 2 -11 -29 -19 -70z"/>
<path d="M4447 2278 c-10 -39 -14 -75 -10 -78 4 -4 21 -10 36 -14 24 -6 27 -5
15 7 -7 8 -18 13 -24 10 -7 -2 -15 1 -20 8 -4 8 -3 10 4 5 8 -5 10 -2 6 8 -3
9 -1 39 6 66 7 28 10 53 8 55 -2 3 -12 -28 -21 -67z"/>
<path d="M1484 2115 c-18 -14 -18 -14 4 -8 20 5 22 2 22 -40 0 -45 12 -68 25
-47 8 13 25 13 25 0 0 -12 -55 -41 -64 -33 -3 4 -6 -1 -6 -10 0 -14 4 -14 35
4 42 25 51 37 37 51 -8 8 -16 7 -27 -2 -13 -11 -15 -7 -15 31 0 59 -10 74 -36
54z"/>
<path d="M346 2102 c-3 -5 1 -9 9 -9 8 0 12 4 9 9 -3 4 -7 8 -9 8 -2 0 -6 -4
-9 -8z"/>
<path d="M385 2090 c-10 -11 -15 -20 -12 -20 4 0 16 9 27 20 11 11 16 20 12
20 -5 0 -17 -9 -27 -20z"/>
<path d="M851 2061 c-144 -63 -151 -69 -126 -115 17 -31 17 -36 3 -57 -15 -23
-12 -27 105 -154 66 -71 130 -140 141 -153 l22 -22 89 44 c50 24 112 59 140
78 84 56 77 83 -53 220 -53 57 -117 127 -140 156 -24 28 -49 52 -55 52 -7 0
-63 -22 -126 -49z m317 -173 c45 -47 82 -91 82 -96 0 -5 -24 -19 -53 -31 -29
-12 -79 -37 -110 -56 -32 -19 -63 -35 -70 -35 -13 0 -297 295 -297 308 0 9
120 68 208 103 l47 18 55 -62 c30 -34 92 -101 138 -149z m-225 -166 c88 -92
89 -92 73 -117 -9 -14 -20 -25 -24 -25 -4 0 -35 33 -69 73 -34 39 -91 103
-127 142 -63 67 -65 71 -53 98 l12 28 49 -53 c27 -29 90 -95 139 -146z m327
31 c0 -10 -4 -23 -8 -29 -8 -12 -107 -71 -178 -107 l-51 -26 1 36 c2 33 6 37
81 79 44 24 85 44 90 44 6 0 3 -5 -5 -10 -19 -13 -8 -13 25 0 14 5 23 14 20
20 -3 5 1 10 9 10 9 0 16 -8 16 -17z"/>
<path d="M829 1813 c40 -46 75 -83 78 -83 8 0 -72 92 -113 130 -21 19 -5 -2
35 -47z"/>
<path d="M798 1815 c85 -99 201 -221 201 -210 0 6 -57 69 -126 140 -69 72
-103 103 -75 70z"/>
<path d="M961 1670 c18 -22 37 -40 43 -40 5 0 -8 18 -29 40 -21 22 -41 40 -43
40 -1 0 12 -18 29 -40z"/>
<path d="M1187 1703 c-26 -14 -46 -27 -44 -30 7 -6 97 40 97 49 0 10 3 11 -53
-19z"/>
<path d="M1105 1689 c-27 -17 -40 -28 -27 -24 33 9 110 55 92 54 -8 0 -37 -14
-65 -30z"/>
<path d="M1070 1645 c-14 -8 -19 -14 -10 -14 8 0 26 6 40 14 14 8 19 14 10 14
-8 0 -26 -6 -40 -14z"/>
<path d="M1440 2085 c-15 -19 -3 -37 20 -30 15 5 20 0 23 -22 3 -23 4 -21 6
10 1 35 0 37 -20 27 -26 -14 -36 -6 -19 15 7 8 10 15 7 15 -2 0 -10 -7 -17
-15z"/>
<path d="M422 2070 c0 -14 2 -19 5 -12 2 6 2 18 0 25 -3 6 -5 1 -5 -13z"/>
<path d="M2848 2083 c7 -3 16 -2 19 1 4 3 -2 6 -13 5 -11 0 -14 -3 -6 -6z"/>
<path d="M332 2060 c0 -14 2 -19 5 -12 2 6 2 18 0 25 -3 6 -5 1 -5 -13z"/>
<path d="M2893 2075 c4 -5 -4 -21 -19 -36 -20 -21 -23 -29 -12 -35 7 -4 10 -3
5 1 -4 5 4 21 19 36 20 21 23 29 12 35 -7 4 -10 3 -5 -1z"/>
<path d="M2836 2031 c-21 -22 -25 -31 -14 -37 7 -4 10 -3 5 1 -4 5 5 21 20 37
15 15 24 28 22 28 -3 0 -18 -13 -33 -29z"/>
<path d="M4181 2057 c2 -1 13 -9 24 -17 19 -14 19 -14 6 3 -7 9 -18 17 -24 17
-6 0 -8 -1 -6 -3z"/>
<path d="M356 2035 c-3 -9 -6 -22 -5 -28 0 -7 5 -1 10 12 5 13 8 26 5 28 -2 2
-6 -3 -10 -12z"/>
<path d="M385 2040 c-3 -5 -1 -10 4 -10 6 0 11 5 11 10 0 6 -2 10 -4 10 -3 0
-8 -4 -11 -10z"/>
<path d="M4156 2032 c-3 -5 1 -9 9 -9 8 0 12 4 9 9 -3 4 -7 8 -9 8 -2 0 -6 -4
-9 -8z"/>
<path d="M430 2010 c-1 -24 -1 -24 -15 -6 -8 11 -15 15 -15 9 0 -6 7 -16 15
-23 12 -10 16 -9 21 4 3 8 4 21 1 28 -3 7 -6 2 -7 -12z"/>
<path d="M4190 1996 c0 -2 7 -7 16 -10 8 -3 12 -2 9 4 -6 10 -25 14 -25 6z"/>
<path d="M2422 1953 c-31 -32 -89 -191 -79 -217 15 -38 67 -4 67 45 0 40 17
37 35 -7 11 -28 19 -35 37 -32 21 3 23 8 26 84 3 90 -7 127 -38 144 -17 9 -25
7 -48 -17z m68 -22 c17 -41 9 -175 -10 -179 -10 -2 -19 9 -25 30 -13 45 -47
46 -55 2 -9 -40 -18 -54 -36 -54 -20 0 -18 14 16 116 40 120 82 152 110 85z"/>
<path d="M2427 1906 c-8 -19 15 -37 32 -26 17 10 7 40 -13 40 -7 0 -16 -6 -19
-14z m33 -4 c0 -13 -12 -22 -22 -16 -10 6 -1 24 13 24 5 0 9 -4 9 -8z"/>
<path d="M4185 1970 c-3 -5 -1 -10 4 -10 6 0 11 5 11 10 0 6 -2 10 -4 10 -3 0
-8 -4 -11 -10z"/>
<path d="M3306 1942 c-2 -4 4 -8 15 -8 10 0 19 4 19 8 0 4 -6 8 -14 8 -8 0
-17 -4 -20 -8z"/>
<path d="M1813 1854 c-101 -93 -111 -116 -70 -154 12 -12 38 -30 58 -40 l36
-19 23 24 c13 14 20 25 15 25 -5 0 6 16 25 35 19 19 39 35 44 35 6 0 -7 -16
-29 -35 -22 -19 -36 -34 -32 -35 14 0 142 122 139 132 -1 6 3 17 9 24 10 12 8
18 -12 32 -32 24 -100 62 -108 62 -3 0 -48 -39 -98 -86z m190 22 c9 -6 17 -13
17 -17 0 -3 -38 -41 -85 -83 l-85 -78 -52 38 -51 38 83 78 84 77 36 -21 c19
-12 43 -27 53 -32z m-199 -160 c32 -25 52 -47 47 -51 -6 -3 -11 0 -11 7 0 9
-2 10 -8 1 -5 -8 -14 -7 -32 3 -24 14 -24 15 -2 11 30 -7 28 1 -4 13 -14 6
-22 14 -19 20 3 6 -1 7 -10 4 -13 -5 -13 -9 -3 -23 8 -11 5 -10 -10 3 -22 19
-31 56 -13 56 5 0 34 -20 65 -44z"/>
<path d="M3244 1916 c-3 -9 4 -37 17 -63 22 -43 27 -48 58 -48 20 0 35 5 37
13 1 7 0 8 -3 2 -2 -5 -18 -10 -34 -10 -26 0 -33 6 -49 43 -11 23 -20 48 -20
55 0 17 18 15 23 -3 4 -12 5 -11 3 1 -2 23 -24 30 -32 10z"/>
<path d="M3311 1915 c1 -19 18 -51 18 -35 0 8 -4 22 -9 30 -5 8 -9 11 -9 5z"/>
<path d="M3351 1874 c0 -11 3 -14 6 -6 3 7 2 16 -1 19 -3 4 -6 -2 -5 -13z"/>
<path d="M3280 1874 c0 -6 8 -18 19 -28 17 -15 19 -15 32 1 13 16 12 17 -3 5
-14 -11 -19 -10 -32 10 -9 12 -16 18 -16 12z"/>
<path d="M3720 1814 c-52 -36 -99 -69 -103 -74 -11 -10 1 -50 14 -50 6 0 5 8
-1 21 -7 11 -10 22 -8 23 17 14 169 115 193 128 16 9 23 17 15 17 -8 0 -58
-29 -110 -65z"/>
<path d="M3880 1835 c19 -19 36 -35 39 -35 3 0 -10 16 -29 35 -19 19 -36 35
-39 35 -3 0 10 -16 29 -35z"/>
<path d="M3934 1790 c4 -10 -15 -29 -57 -57 -34 -23 -75 -54 -92 -68 -16 -15
-1 -7 34 17 131 89 140 92 127 46 -4 -14 -45 -50 -109 -95 -99 -70 -102 -71
-105 -47 -2 14 2 32 9 40 10 12 9 13 -5 8 -10 -4 -26 1 -39 12 l-22 19 18 -22
c11 -12 14 -23 8 -27 -5 -4 -12 -2 -16 4 -3 5 -16 15 -28 21 l-22 12 23 -25
c32 -36 27 -47 -7 -14 -19 18 -27 34 -24 45 5 13 3 14 -8 3 -11 -10 -4 -22 41
-67 63 -63 48 -67 199 43 102 74 103 75 97 110 -3 19 -10 40 -16 46 -8 8 -10
7 -6 -4z m-222 -222 c-5 -5 -14 -2 -23 8 -8 10 -9 15 -3 11 7 -4 15 3 19 16
l8 22 4 -24 c3 -13 1 -27 -5 -33z"/>
<path d="M5 1770 c3 -5 22 -14 43 -20 20 -7 41 -16 46 -21 5 -4 -14 -34 -43
-68 -31 -35 -47 -62 -41 -66 6 -4 9 -2 8 2 -4 12 71 83 86 83 6 0 2 -8 -9 -16
-11 -8 -19 -19 -18 -24 1 -5 -14 -23 -34 -41 -21 -18 -38 -42 -39 -55 -1 -19
7 -14 45 28 78 87 84 97 71 113 -6 8 -9 23 -5 33 5 17 -3 23 -55 40 -33 12
-58 17 -55 12z m75 -153 c0 -2 -10 -12 -22 -23 l-23 -19 19 23 c18 21 26 27
26 19z"/>
<path d="M4435 1718 l-60 -63 63 60 c58 55 67 65 59 65 -1 0 -29 -28 -62 -62z"/>
<path d="M2768 1674 c-51 -48 -129 -118 -173 -157 -106 -91 -115 -103 -115
-144 0 -26 10 -44 46 -83 41 -44 214 -170 233 -170 4 0 93 81 197 180 120 114
189 187 190 200 1 21 -137 170 -206 222 -66 49 -70 48 -172 -48z m165 37 c56
-38 199 -191 193 -206 -2 -7 -71 -73 -154 -148 l-149 -136 -54 46 c-98 84
-210 163 -232 163 -18 0 -15 6 23 38 25 20 101 90 170 154 69 65 133 118 143
118 10 0 37 -13 60 -29z m-266 -378 c45 -35 85 -69 89 -76 4 -6 -5 -1 -19 12
-15 14 -29 22 -32 19 -9 -9 34 -41 56 -42 30 -1 35 -22 8 -29 -14 -4 -31 1
-47 14 -14 10 -21 19 -17 19 5 0 0 9 -10 20 -13 15 -22 17 -36 9 -18 -9 -23
-5 -20 14 0 4 -6 7 -14 7 -22 0 -74 40 -91 70 -8 16 -13 19 -14 9 0 -24 10
-35 129 -124 20 -15 23 -16 12 -2 -23 29 2 18 42 -18 23 -23 37 -44 37 -60 0
-14 -2 -25 -6 -25 -9 0 -116 75 -164 115 -72 60 -90 110 -48 139 26 19 36 14
145 -71z m179 -119 c-49 -46 -92 -82 -95 -78 -3 3 12 20 34 38 22 17 62 52 90
78 27 26 52 47 55 47 3 0 -35 -38 -84 -85z m-155 49 c13 -16 12 -17 -3 -4 -10
7 -18 15 -18 17 0 8 8 3 21 -13z m92 -75 c-13 -12 -25 -19 -29 -15 -10 10 16
37 34 37 13 0 12 -4 -5 -22z"/>
<path d="M2553 1384 c0 -8 22 -31 49 -50 26 -20 45 -40 42 -46 -4 -6 3 -5 15
1 12 7 27 9 34 5 7 -5 7 -1 -2 9 -8 10 -19 16 -25 14 -18 -7 -47 13 -40 26 4
7 4 9 -1 5 -4 -4 -20 -1 -36 8 -30 15 -40 30 -14 20 21 -8 19 1 -3 13 -14 8
-19 6 -19 -5z"/>
<path d="M2560 1291 c51 -47 129 -101 143 -101 6 0 -16 19 -49 41 -32 23 -63
48 -67 55 -4 8 -22 21 -40 30 -29 14 -28 11 13 -25z"/>
<path d="M356 1669 c-40 -32 -108 -136 -104 -162 5 -35 33 -32 56 7 19 32 24
34 55 29 29 -4 37 -1 60 27 39 46 32 81 -19 108 -18 10 -27 8 -48 -9z m62 -11
c38 -38 -10 -113 -65 -102 -27 5 -33 2 -52 -30 -25 -39 -41 -46 -41 -18 0 19
81 140 102 154 19 11 42 10 56 -4z"/>
<path d="M376 1635 c-9 -9 -16 -21 -16 -26 0 -18 32 -22 48 -5 15 15 15 17 1
32 -15 14 -18 14 -33 -1z m24 -20 c0 -8 -4 -15 -10 -15 -5 0 -10 7 -10 15 0 8
5 15 10 15 6 0 10 -7 10 -15z"/>
<path d="M4370 1625 c0 -41 17 -63 70 -90 58 -29 57 -29 57 -11 0 8 -13 17
-29 20 -19 4 -27 10 -22 17 4 8 3 9 -4 5 -20 -12 -52 13 -52 41 l0 27 28 -26
c26 -24 62 -31 79 -14 5 4 4 7 -2 5 -11 -2 -47 11 -95 36 -30 15 -30 15 -30
-10z"/>
<path d="M1406 1578 c-33 -46 -10 -138 34 -138 26 0 50 27 50 56 0 19 -5 24
-26 24 -23 0 -25 -3 -19 -27 5 -23 4 -25 -9 -14 -18 15 -22 66 -6 76 6 4 17 1
25 -5 12 -10 16 -9 21 4 17 45 -42 65 -70 24z m63 -10 c0 -13 -3 -17 -6 -10
-7 17 -40 15 -47 -4 -11 -28 -6 -62 10 -78 19 -20 37 -11 29 15 -4 13 -2 19 9
19 19 0 21 -31 4 -48 -32 -32 -68 -1 -68 58 0 45 16 70 45 70 19 0 25 -5 24
-22z"/>
<path d="M2032 1464 c-30 -21 -62 -86 -62 -126 0 -78 70 -105 124 -49 30 31
59 112 49 139 -18 51 -67 67 -111 36z m82 -10 c36 -36 -3 -159 -56 -178 -81
-29 -106 88 -33 161 36 36 65 42 89 17z"/>
<path d="M2044 1415 c-8 -20 4 -35 27 -35 14 0 19 7 19 25 0 18 -5 25 -20 25
-11 0 -23 -7 -26 -15z m36 -10 c0 -8 -4 -15 -9 -15 -13 0 -22 16 -14 24 11 11
23 6 23 -9z"/>
<path d="M3363 1373 c-7 -17 16 -115 42 -176 13 -32 20 -37 48 -37 43 0 79 26
75 53 -3 18 -9 22 -39 20 l-37 -2 -17 67 c-9 37 -21 72 -27 79 -15 18 -37 16
-45 -4z m52 -45 c8 -28 15 -59 15 -69 0 -24 25 -41 56 -37 36 4 42 -17 10 -37
-50 -33 -68 -19 -99 78 -28 83 -30 117 -8 117 6 0 17 -23 26 -52z"/>
<path d="M4012 1364 c-25 -17 -42 -135 -23 -158 13 -15 65 -26 80 -17 19 12
16 45 -6 56 -19 10 -20 12 -5 22 14 9 15 14 4 32 -11 18 -10 21 7 21 20 0 37
28 24 41 -16 15 -61 17 -81 3z m76 -9 c9 -8 -10 -25 -28 -25 -26 0 -36 -21
-16 -32 22 -12 20 -25 -5 -31 -25 -7 -16 -27 12 -27 12 0 19 -7 19 -20 0 -15
-7 -20 -27 -20 -50 0 -56 11 -48 84 7 71 20 87 64 79 14 -2 27 -6 29 -8z"/>
<path d="M747 1342 c-35 -38 -5 -112 46 -112 33 0 67 -11 67 -22 0 -5 -8 -8
-17 -7 -34 3 -43 -1 -43 -21 0 -24 35 -44 65 -36 54 14 71 64 36 107 -15 19
-29 24 -67 24 -29 0 -49 5 -51 12 -3 9 4 11 26 7 38 -8 52 17 26 46 -23 25
-67 26 -88 2z m77 -11 c21 -23 6 -37 -22 -22 -22 12 -32 5 -32 -20 0 -20 20
-29 68 -29 20 0 42 -4 48 -8 19 -12 26 -50 14 -72 -9 -17 -19 -20 -47 -18 -46
4 -58 28 -14 28 16 0 32 4 36 9 10 17 -26 41 -61 41 -40 0 -74 29 -74 65 0 42
54 59 84 26z"/>
<path d="M1590 1288 c-52 -16 -128 -38 -168 -48 -40 -10 -89 -24 -108 -30
l-37 -12 6 -62 c3 -37 19 -98 42 -156 21 -52 39 -96 40 -97 3 -5 122 35 386
129 l57 20 -2 47 c-2 37 -15 70 -57 144 -30 53 -56 96 -59 96 -3 -1 -48 -14
-100 -31z m137 -55 c50 -90 65 -125 56 -134 -5 -4 -51 -21 -103 -37 -52 -16
-143 -45 -202 -64 l-108 -33 -11 30 c-6 16 -24 67 -39 112 l-28 81 66 17 c54
14 264 76 307 90 6 2 13 4 17 4 3 1 24 -29 45 -66z m-418 -148 c0 -5 -4 -3 -9
5 -5 8 -9 22 -9 30 0 16 17 -16 18 -35z m481 -23 c0 -21 -42 -44 -64 -36 -7 3
-20 -1 -27 -8 -12 -11 -96 -46 -159 -65 -13 -4 -13 -4 0 6 26 19 -10 12 -55
-10 -22 -11 -33 -18 -25 -16 60 16 63 16 32 2 -18 -9 -38 -13 -44 -9 -5 4 -13
2 -17 -3 -12 -19 -48 -25 -55 -8 -3 8 0 15 7 15 9 0 8 3 -1 9 -16 10 25 26
193 75 66 19 129 38 140 41 14 5 16 4 7 -3 -11 -7 -9 -10 7 -15 12 -3 19 -1
16 3 -6 9 22 40 36 40 5 0 9 -8 9 -18z m-451 -54 c11 -34 19 -63 17 -65 -4 -4
-46 104 -46 118 0 22 10 5 29 -53z"/>
<path d="M1621 1016 c-36 -12 -67 -28 -69 -34 -5 -16 23 -15 40 1 7 8 37 22
66 31 50 17 66 27 40 25 -7 0 -42 -11 -77 -23z"/>
<path d="M1440 960 c-38 -13 -44 -17 -20 -13 35 5 104 31 85 32 -5 0 -35 -9
-65 -19z"/>
<path d="M1390 920 c0 -5 7 -7 15 -4 8 4 15 8 15 10 0 2 -7 4 -15 4 -8 0 -15
-4 -15 -10z"/>
<path d="M155 1231 c-55 -15 -112 -31 -127 -35 -16 -3 -28 -10 -28 -15 0 -7
241 52 262 65 15 9 48 -26 75 -81 14 -27 44 -76 66 -108 22 -31 38 -59 36 -60
-10 -7 -175 -63 -283 -95 l-118 -36 -18 22 -18 22 1 -34 1 -34 50 15 c28 8 80
23 115 34 35 11 71 17 80 14 9 -2 23 0 31 5 13 9 13 10 0 10 -22 2 27 20 69
26 20 3 40 10 45 15 16 15 26 10 26 -12 0 -15 -5 -19 -16 -15 -8 3 -12 2 -9
-4 9 -14 -8 -12 -24 3 -11 10 -13 9 -8 -4 3 -9 0 -16 -6 -16 -7 -1 -38 -10
-70 -22 -32 -11 -65 -17 -74 -14 -10 4 -14 2 -10 -4 5 -7 -1 -9 -15 -6 -13 3
-20 2 -15 -2 8 -9 -126 -65 -155 -65 -10 0 -18 -4 -18 -10 0 -13 -14 -16 140
35 74 25 172 57 218 71 73 23 82 28 77 45 -4 13 0 28 10 39 16 18 16 21 -12
57 -17 21 -49 72 -72 113 -50 88 -68 110 -90 109 -9 0 -61 -13 -116 -28z"/>
<path d="M4427 1165 c-37 -12 -72 -26 -77 -31 -25 -25 -12 -80 44 -188 84
-160 107 -186 105 -123 0 25 -2 28 -8 12 -7 -18 -9 -18 -25 7 -10 15 -14 33
-10 40 4 7 4 10 -1 6 -7 -7 -45 42 -45 57 0 12 26 -2 37 -20 20 -33 14 -7 -8
38 -30 58 -59 95 -59 73 0 -9 5 -16 11 -16 5 0 7 -5 3 -12 -4 -6 -3 -8 3 -5 6
4 10 -7 10 -26 0 -28 -4 -25 -29 33 -28 62 -34 112 -13 110 6 -1 9 -8 9 -15
-1 -8 2 -12 7 -9 10 6 98 -166 92 -183 -6 -16 16 -27 22 -11 3 7 -21 63 -53
123 l-58 110 56 19 c57 20 66 24 59 29 -2 2 -34 -6 -72 -18z m3 -210 c0 -5 -5
-3 -10 5 -5 8 -10 20 -10 25 0 6 5 3 10 -5 5 -8 10 -19 10 -25z"/>
<path d="M3548 997 c-76 -40 -140 -78 -143 -85 -2 -7 -1 -10 5 -7 5 3 24 -9
42 -26 29 -27 29 -28 4 -10 -44 32 -54 25 -11 -9 39 -31 50 -37 40 -20 -9 15
11 12 24 -4 18 -22 -18 -30 -41 -10 -10 10 -20 15 -23 13 -2 -3 17 -21 42 -42
25 -20 41 -37 36 -37 -16 0 -93 70 -90 83 1 6 -4 11 -11 12 -7 0 -17 7 -22 15
-5 8 -10 10 -10 5 0 -22 34 -57 109 -114 l78 -58 139 69 c138 69 169 88 146
88 -17 0 -15 45 2 60 13 10 2 23 -64 81 -43 38 -86 69 -96 68 -11 0 -81 -33
-156 -72z m240 2 c40 -34 71 -63 70 -64 -6 -6 -144 -80 -208 -111 -41 -20 -70
-29 -80 -24 -18 10 -134 110 -138 119 -2 7 256 139 274 140 5 1 43 -27 82 -60z
m31 -132 l-24 -20 25 7 c24 7 25 7 5 -9 -26 -21 -244 -130 -249 -124 -2 2 -7
14 -10 26 -6 18 -1 25 31 41 65 33 114 52 107 41 -4 -8 2 -9 17 -5 20 6 21 5
6 -4 -9 -6 -21 -9 -26 -6 -10 7 -125 -43 -118 -51 3 -2 28 7 56 21 56 29 65
31 55 15 -3 -6 8 -3 25 6 18 9 29 20 26 25 -4 6 0 10 7 10 10 0 10 2 -1 9 -11
7 -2 15 35 34 53 27 74 17 33 -16z m-271 -59 c12 -15 4 -70 -9 -62 -5 3 -7 9
-4 13 2 5 -4 16 -15 26 -16 14 -17 20 -8 27 18 11 24 10 36 -4z"/>
<path d="M3800 880 c-8 -5 -10 -10 -5 -10 6 0 17 5 25 10 8 5 11 10 5 10 -5 0
-17 -5 -25 -10z"/>
<path d="M3600 750 c-9 -6 -10 -10 -3 -10 6 0 15 5 18 10 8 12 4 12 -15 0z"/>
<path d="M2352 1048 c-19 -19 -16 -224 3 -232 20 -7 48 23 41 47 -3 14 4 10
24 -14 23 -28 31 -32 41 -21 11 10 11 18 0 45 -8 17 -13 46 -12 62 0 17 2 42
2 58 3 52 -65 89 -99 55z m70 -15 c20 -18 24 -73 7 -90 -8 -8 -5 -22 10 -51
25 -48 25 -52 8 -52 -7 0 -21 16 -30 35 -22 47 -37 44 -37 -6 0 -28 -4 -39
-12 -37 -18 6 -23 184 -7 204 15 19 38 18 61 -3z"/>
<path d="M2374 1009 c-3 -6 0 -17 7 -25 18 -17 44 -2 36 20 -7 18 -33 21 -43
5z m36 -9 c0 -5 -4 -10 -10 -10 -5 0 -10 5 -10 10 0 6 5 10 10 10 6 0 10 -4
10 -10z"/>
<path d="M3014 1008 c-4 -7 -3 -8 5 -4 6 4 14 0 17 -8 3 -9 10 -16 15 -16 5 0
4 9 -3 20 -15 23 -24 25 -34 8z"/>
<path d="M3065 1010 c-3 -6 1 -7 9 -4 18 7 21 14 7 14 -6 0 -13 -4 -16 -10z"/>
<path d="M3092 975 c0 -16 2 -22 5 -12 2 9 2 23 0 30 -3 6 -5 -1 -5 -18z"/>
<path d="M3001 974 c0 -11 3 -14 6 -6 3 7 2 16 -1 19 -3 4 -6 -2 -5 -13z"/>
<path d="M3020 928 c-11 -30 -13 -31 -21 -13 -8 19 -9 19 -6 1 4 -32 24 -29
36 5 6 18 9 34 7 36 -2 2 -9 -11 -16 -29z"/>
<path d="M3055 950 c-3 -5 -1 -10 4 -10 6 0 11 5 11 10 0 6 -2 10 -4 10 -3 0
-8 -4 -11 -10z"/>
<path d="M3070 923 c0 -6 7 -16 15 -23 12 -10 16 -9 21 4 4 9 4 20 0 23 -3 4
-6 -2 -6 -13 -1 -19 -1 -19 -15 0 -8 11 -15 15 -15 9z"/>
<path d="M1846 808 c-20 -51 -36 -100 -36 -109 0 -19 40 -39 79 -39 49 0 111
91 111 162 0 41 -40 78 -84 78 -34 0 -35 0 -70 -92z m127 50 c14 -17 17 -31
12 -58 -10 -53 -52 -119 -81 -126 -23 -6 -84 12 -84 25 0 3 16 48 36 100 l36
93 32 -6 c17 -3 39 -16 49 -28z"/>
<path d="M1889 833 c-40 -103 -40 -103 -13 -103 38 0 61 16 73 50 12 35 6 57
-20 70 -26 14 -28 13 -40 -17z m49 -21 c5 -31 -24 -72 -49 -72 -13 0 -19 5
-16 13 2 6 10 29 18 50 15 42 42 47 47 9z"/>
<path d="M95 855 l-40 -13 45 5 c25 3 49 9 55 14 13 13 -12 10 -60 -6z"/>
<path d="M788 747 c-76 -40 -140 -78 -143 -85 -2 -7 -1 -10 5 -7 5 3 24 -9 42
-26 29 -27 29 -28 4 -10 -44 32 -54 25 -11 -9 39 -31 50 -37 40 -20 -9 15 11
12 24 -4 18 -22 -18 -30 -41 -10 -10 10 -20 15 -23 13 -2 -3 17 -21 42 -42 25
-20 41 -37 36 -37 -16 0 -93 70 -90 83 1 6 -4 11 -12 12 -8 0 -17 9 -22 20 -7
19 -8 19 -8 1 -1 -21 61 -85 134 -136 l50 -35 140 68 c77 38 141 70 143 72 2
2 -1 12 -7 23 -7 14 -6 25 6 42 16 23 15 25 -58 91 -41 38 -83 68 -94 68 -11
0 -82 -32 -157 -72z m241 1 l72 -61 -63 -34 c-35 -19 -97 -52 -139 -73 l-77
-39 -29 22 c-48 36 -126 107 -122 111 10 9 265 135 275 135 5 1 43 -27 83 -61z
m45 -112 c-3 -9 -10 -16 -16 -16 -5 0 -6 4 -3 10 4 6 -1 7 -11 3 -12 -4 -14
-8 -5 -11 8 -3 7 -8 -6 -19 -16 -13 -16 -13 5 -3 13 6 28 10 34 8 13 -5 -108
-73 -198 -113 -58 -26 -73 -23 -74 12 0 11 270 155 278 148 1 -1 0 -10 -4 -19z
m-286 -78 c12 -15 4 -70 -9 -62 -5 3 -7 9 -4 13 2 5 -4 16 -15 26 -16 14 -17
20 -8 27 18 11 24 10 36 -4z"/>
<path d="M911 565 c-93 -49 -117 -66 -56 -40 70 29 69 29 61 16 -5 -7 11 -3
34 9 23 12 40 24 37 26 -3 3 -17 -2 -31 -12 -15 -9 -29 -15 -31 -12 -3 3 13
13 35 24 22 10 40 22 40 27 0 9 8 12 -89 -38z"/>
<path d="M835 500 c-3 -5 -2 -10 4 -10 5 0 13 5 16 10 3 6 2 10 -4 10 -5 0
-13 -4 -16 -10z"/>
<path d="M4088 773 c-14 -2 -29 -11 -32 -19 -8 -20 12 -56 26 -48 16 10 28
-17 28 -67 0 -53 19 -85 44 -76 16 6 17 16 11 82 -7 73 -7 75 14 75 18 0 22 5
19 28 -3 24 -7 27 -43 28 -22 1 -52 0 -67 -3z m100 -25 c2 -12 -3 -18 -17 -18
-28 0 -30 -7 -20 -78 5 -35 6 -69 2 -74 -11 -20 -33 24 -33 68 0 55 -8 74 -31
74 -32 0 -24 38 9 43 53 9 87 3 90 -15z"/>
<path d="M2675 708 l-40 -43 41 38 42 39 55 -18 c41 -13 55 -22 54 -35 -1 -10
-4 -17 -7 -16 -3 1 -28 -22 -55 -51 l-50 -53 -50 21 c-61 26 -61 26 -44 47 13
16 12 17 -3 4 -21 -16 -25 -83 -5 -98 6 -6 33 -22 58 -36 l47 -25 34 36 c82
87 108 125 97 139 -6 7 -9 22 -6 32 4 15 -3 23 -32 34 -82 33 -93 31 -136 -15z
m155 -63 c0 -8 -7 -15 -16 -15 -14 0 -14 -3 -4 -15 7 -8 10 -16 6 -16 -3 -1
-10 -2 -16 -3 -5 0 -23 -17 -40 -36 -17 -19 -28 -28 -23 -20 11 22 13 41 2 34
-5 -3 -7 -9 -4 -14 3 -5 1 -12 -5 -15 -8 -5 -8 -11 0 -20 7 -8 7 -15 1 -19 -5
-4 -12 -2 -16 4 -3 5 -15 10 -26 10 -13 0 -18 4 -13 12 4 7 3 8 -4 4 -18 -11
-49 11 -54 39 -3 14 -1 25 3 25 5 0 9 -4 9 -8 0 -4 15 -16 33 -27 28 -16 30
-16 18 -2 -12 15 -12 17 3 11 9 -3 16 -16 16 -28 1 -21 1 -21 12 -1 8 16 106
113 116 115 1 0 2 -7 2 -15z"/>
<path d="M1415 624 c-17 -18 -17 -19 42 -87 18 -20 33 -46 33 -57 0 -36 -37
-22 -84 32 -38 44 -49 51 -63 42 -30 -19 -25 -33 32 -93 67 -70 98 -84 142
-66 67 28 65 76 -7 171 -50 66 -73 80 -95 58z m57 -31 c73 -78 94 -139 61
-175 -36 -40 -103 -13 -168 67 -31 38 -36 48 -24 56 21 13 22 12 47 -26 30
-47 79 -77 104 -64 27 15 22 33 -27 93 -25 31 -45 60 -45 66 0 19 26 10 52
-17z"/>
<path d="M63 515 c-28 -19 -55 -40 -59 -46 -4 -6 20 6 52 28 32 22 66 43 74
46 13 5 13 6 0 6 -8 1 -39 -15 -67 -34z"/>
<path d="M180 505 c19 -19 36 -35 39 -35 3 0 -10 16 -29 35 -19 19 -36 35 -39
35 -3 0 10 -16 29 -35z"/>
<path d="M3147 488 c-14 -13 -38 -61 -56 -113 -35 -103 -37 -111 -16 -119 26
-10 45 5 55 46 12 42 31 46 40 8 3 -13 13 -28 23 -34 15 -9 21 -7 33 9 12 15
13 38 9 100 -6 81 -24 125 -50 125 -7 0 -25 -10 -38 -22z m57 -10 c7 -13 17
-57 20 -99 5 -62 4 -78 -9 -89 -19 -16 -32 -5 -37 30 -2 19 -9 25 -28 25 -21
0 -26 -5 -28 -32 -3 -32 -35 -63 -46 -44 -9 13 55 192 75 212 25 25 35 24 53
-3z"/>
<path d="M3157 443 c-14 -13 -6 -33 13 -33 13 0 20 7 20 20 0 19 -20 27 -33
13z m23 -13 c0 -5 -4 -10 -10 -10 -5 0 -10 5 -10 10 0 6 5 10 10 10 6 0 10 -4
10 -10z"/>
<path d="M234 460 c3 -10 -12 -26 -47 -48 -29 -18 -68 -47 -87 -64 -19 -16 2
-5 47 26 83 56 103 65 103 45 0 -26 -27 -52 -120 -118 l-100 -71 0 34 c0 19
-6 36 -13 39 -8 3 -14 -1 -14 -9 0 -7 4 -11 9 -8 13 8 9 -41 -4 -54 -9 -9 -8
-12 8 -12 10 0 70 37 133 81 l113 81 -6 36 c-3 19 -10 40 -16 46 -8 8 -10 7
-6 -4z"/>
<path d="M4448 435 c-43 -32 -46 -36 -35 -58 6 -14 17 -23 24 -20 10 4 9 8 -2
20 -22 21 -19 28 25 57 22 14 40 28 40 31 0 8 -2 6 -52 -30z"/>
<path d="M2206 441 c-3 -4 1 -28 9 -52 13 -40 12 -11 -1 34 -3 9 0 17 6 17 6
0 13 -14 17 -30 3 -17 8 -29 10 -26 3 2 2 18 -2 35 -6 29 -27 41 -39 22z"/>
<path d="M2280 440 c0 -6 5 -8 11 -4 6 3 16 0 21 -7 8 -12 9 -11 5 1 -4 18
-37 27 -37 10z"/>
<path d="M3693 423 c54 -2 139 -2 190 0 51 1 7 3 -98 3 -104 0 -146 -2 -92 -3z"/>
<path d="M2271 387 c0 -16 -5 -26 -11 -22 -5 3 -10 1 -10 -4 0 -16 20 -13 26
3 3 8 4 23 1 33 -3 12 -5 8 -6 -10z"/>
<path d="M3943 387 c-16 -34 -16 -40 -3 -32 6 3 10 -1 10 -9 0 -8 8 -31 17
-51 16 -33 16 -37 0 -64 -9 -16 -14 -37 -11 -48 5 -15 4 -15 -5 -3 -9 12 -11
13 -11 1 0 -8 -3 -12 -6 -9 -3 3 4 24 16 47 11 23 18 41 15 41 -2 0 -19 -27
-35 -61 -17 -34 -26 -58 -21 -54 17 10 14 0 -23 -74 -27 -54 -31 -68 -19 -68
17 0 120 203 125 247 2 14 8 28 13 32 6 5 3 8 -7 8 -23 0 -32 17 -38 75 -5 49
-5 49 -17 22z m-3 -228 c0 8 3 12 6 9 3 -3 -13 -41 -35 -84 -22 -44 -40 -75
-41 -71 0 4 13 34 30 67 17 33 27 67 24 77 -5 15 -4 16 5 3 9 -12 11 -13 11
-1z"/>
<path d="M2302 380 c0 -14 2 -19 5 -12 2 6 2 18 0 25 -3 6 -5 1 -5 -13z"/>
<path d="M2291 334 c0 -11 3 -14 6 -6 3 7 2 16 -1 19 -3 4 -6 -2 -5 -13z"/>
<path d="M3505 280 c-19 -38 -33 -70 -30 -70 2 0 21 32 40 70 19 39 33 70 30
70 -2 0 -21 -31 -40 -70z"/>
<path d="M2233 326 c3 -26 33 -44 48 -29 9 9 7 11 -9 6 -16 -4 -24 1 -32 18
-7 17 -9 19 -7 5z"/>
<path d="M3907 305 c-9 -19 -15 -35 -13 -35 2 0 13 16 25 35 11 19 17 35 13
35 -5 0 -16 -16 -25 -35z"/>
<path d="M4413 328 c-6 -9 4 -25 37 -55 l46 -42 0 34 c0 18 -3 33 -6 32 -3 -1
-16 5 -30 12 l-25 13 23 -21 c12 -12 22 -27 22 -33 0 -7 -13 1 -29 16 -16 16
-27 35 -24 42 6 17 -1 18 -14 2z"/>
<path d="M3920 280 c-6 -11 -8 -20 -6 -20 3 0 10 9 16 20 6 11 8 20 6 20 -3 0
-10 -9 -16 -20z"/>
<path d="M1052 167 c-59 -57 -123 -118 -142 -135 -19 -17 -30 -32 -24 -32 5 0
73 59 149 130 149 140 146 139 210 99 17 -10 77 -65 135 -123 57 -59 109 -106
115 -106 16 0 -196 210 -244 241 -25 16 -55 29 -68 29 -16 0 -57 -33 -131
-103z"/>
<path d="M3910 210 c-16 -33 -50 -93 -75 -135 -24 -42 -40 -73 -35 -70 6 4 17
20 26 37 10 20 19 27 23 19 5 -7 16 5 31 30 12 23 18 39 11 35 -17 -11 -14 -1
24 74 19 39 33 70 30 70 -2 0 -18 -27 -35 -60z m-40 -120 c-6 -12 -14 -19 -17
-17 -2 3 1 15 7 27 6 12 14 19 17 17 2 -3 -1 -15 -7 -27z"/>
<path d="M3864 228 c-9 -18 -37 -71 -62 -117 -25 -46 -40 -81 -33 -76 10 6 11
2 6 -16 -10 -33 -4 -24 34 46 18 34 23 49 12 35 -31 -38 -25 -20 25 74 25 47
43 86 40 86 -3 0 -13 -15 -22 -32z m-73 -175 c-12 -20 -14 -14 -5 12 4 9 9 14
11 11 3 -2 0 -13 -6 -23z"/>
<path d="M3880 210 c-11 -22 -18 -40 -15 -40 2 0 14 18 25 40 11 22 18 40 15
40 -2 0 -14 -18 -25 -40z"/>
<path d="M3410 99 c-23 -44 -39 -86 -36 -92 2 -7 5 -4 5 6 1 9 8 17 16 17 8 0
12 6 9 14 -3 8 9 41 25 75 17 34 29 61 26 61 -3 0 -23 -36 -45 -81z"/>
<path d="M2684 129 c-134 -71 -174 -99 -174 -122 0 -7 5 -4 11 6 10 18 11 18
31 0 21 -18 21 -18 9 5 -7 13 -11 25 -9 27 2 1 42 24 89 49 l87 47 51 -71 c28
-38 54 -70 57 -70 7 0 -2 15 -46 75 -56 76 -60 78 -106 54z"/>
<path d="M4250 126 c0 -14 5 -37 10 -52 8 -21 8 -29 -2 -36 -21 -13 -28 -10
-45 27 -19 40 -43 52 -59 30 -13 -18 -3 -71 17 -89 9 -8 10 -6 4 9 -20 49 -3
101 19 59 35 -64 35 -64 61 -52 29 13 29 17 13 69 -22 76 20 58 48 -19 9 -26
18 -53 20 -61 3 -8 6 -12 9 -9 7 6 -23 99 -40 125 -21 32 -55 31 -55 -1z"/>
<path d="M346 118 c-10 -14 -15 -41 -15 -73 l2 -50 6 51 c8 67 24 86 70 82 28
-2 36 -7 36 -23 0 -14 -8 -21 -27 -23 -20 -2 -28 -9 -28 -23 0 -10 7 -19 15
-19 9 0 15 -9 15 -22 0 -18 2 -20 9 -9 12 18 3 41 -15 41 -8 0 -14 5 -14 10 0
6 11 10 25 10 14 0 29 8 35 21 17 31 -4 49 -56 49 -33 0 -46 -5 -58 -22z"/>
<path d="M1947 98 c-18 -14 -37 -60 -36 -86 0 -9 7 2 16 26 18 51 44 69 68 46
21 -22 14 -39 -16 -39 -18 0 -25 -6 -26 -25 -2 -22 -2 -22 6 -5 5 12 18 20 32
20 30 0 37 30 13 56 -20 22 -34 24 -57 7z"/>
<path d="M3573 33 c141 -3 157 -5 157 -21 0 -14 2 -15 10 -2 16 26 -10 30
-170 28 l-155 -2 158 -3z"/>
<path d="M3510 8 c0 -4 24 -7 53 -7 54 1 49 5 -15 11 -21 2 -38 0 -38 -4z"/>
<path d="M3658 13 c12 -2 32 -2 45 0 12 2 2 4 -23 4 -25 0 -35 -2 -22 -4z"/>
<path d="M4268 3 c7 -3 16 -2 19 1 4 3 -2 6 -13 5 -11 0 -14 -3 -6 -6z"/>
</g>
</svg>
